<?xml version="1.0" encoding="utf-8"?>
<!-- Generator: Adobe Illustrator 17.0.0, SVG Export Plug-In . SVG Version: 6.00 Build 0)  -->
<!DOCTYPE svg PUBLIC "-//W3C//DTD SVG 1.1//EN" "http://www.w3.org/Graphics/SVG/1.1/DTD/svg11.dtd">
<svg version="1.1" id="Layer_1" xmlns="http://www.w3.org/2000/svg" xmlns:xlink="http://www.w3.org/1999/xlink" x="0px" y="0px"
	 width="841.89px" height="1190.55px" viewBox="0 0 841.89 1190.55" enable-background="new 0 0 841.89 1190.55"
	 xml:space="preserve">
<g>
	<path d="M442.21,455.766c1.051-0.839,2.085-1.701,3.158-2.511c1.811-1.367,3.647-2.701,5.786-3.946
		c-0.346,2.297-0.593,4.615-1.055,6.888c-1.984,9.751-6.746,18.138-12.955,25.758c-1.784,2.188-3.795,4.21-5.842,6.161
		c-3.07,2.926-5.628,6.126-6.459,10.41c-0.741,3.819-0.213,7.635,0.027,11.46c0.345,5.492,2.558,10.225,5.5,14.748
		c2.886,4.439,5.289,9.205,6.748,14.256c2.02,6.996,2.11,14.117-1.582,20.724c-2.963,5.301-7.91,7.818-13.777,7.998
		c-6.758,0.207-11.889-2.894-14.742-9.147c-2.923-6.406-3.343-13.074-1.012-19.735c1.976-5.645,4.115-11.245,6.479-16.738
		c2.861-6.646,4.335-13.543,4.332-20.728c-0.001-3.171-1.395-6.038-3.095-8.694c-2.136-3.336-4.897-6.108-7.966-8.577
		c-3.711-2.985-7.425-5.948-10.241-9.871c-3.096-4.313-4.37-9.18-4.596-14.395c-0.005-0.108,0.058-0.219,0.113-0.415
		c3.545,1.162,7.072,2.299,10.578,3.5c0.298,0.102,0.585,0.602,0.651,0.958c1.339,7.3,4.961,13.337,10.163,18.51
		c0.297,0.296,0.635,0.551,1.041,0.77c-1.747-5.493-1.726-11.105-1.687-16.903c1.292,0.411,2.426,0.763,3.554,1.131
		c1.897,0.62,3.786,1.266,5.691,1.862c0.362,0.113,0.783,0.04,1.176,0.053c-0.337-0.247-0.64-0.597-1.017-0.726
		c-2.797-0.951-5.601-1.884-8.423-2.76c-0.745-0.231-0.98-0.573-0.965-1.349c0.051-2.713,0.02-5.428,0.02-8.28
		c-3.337,1.864-6.734,3.763-10.471,5.85c-3.184-1.04-6.853-2.238-10.587-3.458c0-2.456-0.043-4.973,0.007-7.488
		c0.311-15.594,0.639-31.187,0.975-46.78c0.029-1.354-0.272-2.981,0.367-3.978c0.603-0.942,2.234-1.24,3.429-1.786
		c2.433-1.113,4.86-2.242,7.329-3.269c0.547-0.228,1.322-0.244,1.883-0.047c2.555,0.898,5.072,1.907,7.665,2.9
		c0-1.705,0.04-3.313-0.01-4.918c-0.067-2.199-0.096-2.197,1.852-3.062c2.518-1.117,5.024-2.265,7.565-3.329
		c0.494-0.207,1.169-0.245,1.682-0.094c2.757,0.81,5.48,1.737,8.237,2.55c0.753,0.222,1.025,0.546,0.995,1.326
		c-0.058,1.463-0.017,2.93-0.017,4.559c2.342-1.005,4.517-1.989,6.738-2.858c0.57-0.223,1.334-0.254,1.922-0.081
		c2.756,0.814,5.463,1.797,8.228,2.575c1.02,0.287,1.157,0.813,1.161,1.7c0.054,12.118,0.131,24.235,0.208,36.352
		c0.03,4.719,0.062,9.438,0.128,14.156c0.011,0.789-0.195,1.313-0.873,1.794c-2.477,1.758-4.897,3.597-7.346,5.395
		c-0.55,0.404-0.989,0.825-0.67,1.582c-3.147-0.952-6.294-1.902-9.586-2.896c-0.042,0.62-0.086,1.006-0.091,1.392
		c-0.029,2.158-0.095,4.318-0.049,6.475c0.018,0.855-0.247,1.372-0.941,1.87c-2.761,1.978-5.478,4.016-8.197,6.052
		c-0.267,0.2-0.429,0.54-0.64,0.815c0.117,0.091,0.234,0.182,0.35,0.273c3.031-2.239,6.063-4.478,9.094-6.717
		c0.138,0.052,0.276,0.104,0.414,0.156c-0.958,6.209-1.915,12.418-2.885,18.703c1.595-2.436,3.052-4.867,4.711-7.152
		c3.887-5.351,6.375-11.218,7.049-17.83C441.478,456.51,441.942,456.148,442.21,455.766z M402.866,426.786
		c0.308-0.047,0.435-0.036,0.532-0.086c3.091-1.585,6.192-3.153,9.25-4.8c0.329-0.177,0.579-0.817,0.577-1.241
		c-0.017-3.718-0.112-7.436-0.156-11.154c-0.011-0.952,0.102-1.905,0.108-2.858c0.017-2.488,0.006-4.977,0.006-7.62
		c-3.185,1.473-6.21,2.903-9.266,4.264c-0.793,0.353-1.111,0.757-1.1,1.675c0.062,5.318,0.043,10.636,0.049,15.954
		C402.868,422.837,402.866,424.753,402.866,426.786z M431.364,396.379c0,2.847-0.008,5.471,0.016,8.094
		c0.002,0.182,0.201,0.476,0.367,0.525c0.842,0.252,0.911,0.885,0.912,1.601c0.002,1.119,0.05,2.237,0.053,3.356
		c0.008,3.303,0.003,6.607,0.003,9.792c3.15,0.906,5.938,1.707,8.882,2.554c-0.167-7.626-0.33-15.109-0.494-22.599
		C437.882,398.604,434.755,397.536,431.364,396.379z M401.866,460.878c3.409-1.896,6.586-3.652,9.745-5.44
		c0.221-0.125,0.429-0.484,0.438-0.741c0.127-3.955,0.231-7.911,0.296-11.867c0.004-0.243-0.312-0.645-0.555-0.716
		c-3.134-0.92-6.281-1.794-9.617-2.733C401.769,446.553,401.304,453.582,401.866,460.878z M441.695,454.68
		c0.942-6.723,0.809-13.26,0.288-20.033c-3.062,2.097-5.927,4.042-8.761,6.03c-0.229,0.16-0.343,0.614-0.353,0.936
		c-0.101,3.272-0.187,6.545-0.218,9.818c-0.003,0.323,0.322,0.861,0.598,0.941C435.995,453.169,438.764,453.891,441.695,454.68z
		 M413.146,391.29c0,0.902-0.062,1.664,0.011,2.413c0.243,2.505,0.598,5.001,0.785,7.51c0.121,1.618,0.023,3.252,0.023,4.86
		c0.193,0.03,0.287,0.077,0.345,0.049c2.623-1.265,5.251-2.52,7.849-3.834c0.256-0.13,0.457-0.623,0.464-0.951
		c0.042-2.077,0.049-4.156-0.008-6.232c-0.009-0.323-0.335-0.826-0.625-0.925C419.088,393.19,416.163,392.265,413.146,391.29z
		 M431.995,390.055c-2.841,1.375-5.468,2.622-8.062,3.935c-0.288,0.146-0.531,0.658-0.548,1.013
		c-0.064,1.315-0.026,2.636-0.026,3.954c0,3.143-0.001,3.147,3,4.197c1.369,0.479,2.745,0.94,4.283,1.466
		c0-2.584,0.013-4.935-0.007-7.286c-0.006-0.76,0.008-1.433,0.919-1.718c0.201-0.063,0.415-0.462,0.421-0.711
		C432.014,393.356,431.995,391.805,431.995,390.055z M403.699,427.37c0.011,0.095,0.021,0.19,0.032,0.285
		c3.158,0.848,6.315,1.696,9.469,2.543c0-2.66,0-5.134,0-7.74C409.922,424.153,406.81,425.761,403.699,427.37z M433.147,428.322
		c2.773-1.845,5.313-3.535,8.079-5.376c-2.914-0.84-5.527-1.594-8.079-2.329C433.147,423.177,433.147,425.624,433.147,428.322z"/>
</g>
</svg>
